<?xml version="1.0" encoding="UTF-8" standalone="no"?>
<!-- Created with Inkscape (http://www.inkscape.org/) -->

<svg
   width="32"
   height="32"
   viewBox="0 0 8.4666666 8.4666666"
   version="1.1"
   id="svg1"
   xml:space="preserve"
   inkscape:version="1.3 (0e150ed6c4, 2023-07-21)"
   sodipodi:docname="ico.svg"
   xmlns:inkscape="http://www.inkscape.org/namespaces/inkscape"
   xmlns:sodipodi="http://sodipodi.sourceforge.net/DTD/sodipodi-0.dtd"
   xmlns="http://www.w3.org/2000/svg"
   xmlns:svg="http://www.w3.org/2000/svg"><sodipodi:namedview
     id="namedview1"
     pagecolor="#ffffff"
     bordercolor="#666666"
     borderopacity="1.0"
     inkscape:showpageshadow="2"
     inkscape:pageopacity="0.0"
     inkscape:pagecheckerboard="0"
     inkscape:deskcolor="#d1d1d1"
     inkscape:document-units="mm"
     inkscape:zoom="5.9794052"
     inkscape:cx="14.884424"
     inkscape:cy="-6.9404897"
     inkscape:window-width="1920"
     inkscape:window-height="1017"
     inkscape:window-x="2040"
     inkscape:window-y="-8"
     inkscape:window-maximized="1"
     inkscape:current-layer="layer1" /><defs
     id="defs1" /><g
     inkscape:label="Слой 1"
     inkscape:groupmode="layer"
     id="layer1"><g
       id="g42"
       transform="translate(0,-0.09701079)"
       style="fill:#bb3a3a;fill-opacity:1"><path
         style="fill:#429fe0;stroke-width:0.075902;fill-opacity:1"
         d="M 3.9368749,7.0532748 C 3.8731458,7.0270679 3.790156,6.9820969 3.7524532,6.9533395 L 3.6839025,6.9010544 H 2.1276154 c -1.71206809,0 -1.61940296,0.00691 -1.61940296,-0.1207893 0,-0.061494 0.0610314,-0.1201987 0.12496245,-0.1201987 0.022074,0 0.0356964,-0.015035 0.0356964,-0.039393 0,-0.046136 0.0225177,-0.053256 0.44181151,-0.1396833 1.2457999,-0.2567968 1.62416,-0.2520514 2.9573278,0.037092 l 0.1759232,0.038155 0.2862172,-0.066808 c 0.4780189,-0.111579 0.7949534,-0.1613476 1.2816179,-0.2012546 0.2681128,-0.021985 1.0693652,0.0861 1.6948594,0.2286287 0.2009674,0.045796 0.2671743,0.069041 0.2886228,0.1013435 0.015308,0.023053 0.040286,0.041918 0.055507,0.041918 0.04437,0 0.1080033,0.076063 0.1080033,0.1291006 0,0.117366 0.079129,0.1118874 -1.6160448,0.1118874 H 4.7897876 L 4.6858151,6.971022 C 4.5473994,7.0641689 4.4108049,7.101977 4.2147804,7.1014003 4.0910016,7.1010361 4.0253893,7.0896735 3.9368749,7.0532748 Z M 1.1809709,6.3481469 C 1.3544155,6.2648909 1.6966334,6.1513591 1.9183106,6.1035304 2.043863,6.0764414 2.170893,6.0678884 2.4361174,6.0686714 c 0.3024978,9.105e-4 0.385002,0.00839 0.5924291,0.053839 0.20316,0.044516 0.5831889,0.1551437 0.4317704,0.12569 C 3.1908885,6.1957941 2.8988595,6.1747204 2.5766938,6.1844376 2.2117285,6.1954482 2.0411372,6.2195391 1.4055684,6.3498422 1.219829,6.387924 1.0616805,6.4183015 1.0541274,6.4173521 1.0465742,6.416381 1.1036538,6.3852612 1.1809709,6.3481481 Z M 6.984768,6.336468 C 6.2100936,6.1700819 5.7605639,6.1397451 5.2288593,6.2179689 5.0804609,6.2398019 4.9559277,6.2545454 4.9521187,6.2507396 4.937646,6.2362693 5.4303836,6.1164524 5.6306644,6.0857429 6.0481774,6.0217261 6.5838777,6.0786534 6.987898,6.2299798 7.2328392,6.3217209 7.4365449,6.41635 7.3864149,6.4151057 7.3643246,6.4145594 7.1835832,6.3791726 6.984768,6.3364692 Z M 3.821799,6.2292726 C 3.3777197,6.0306208 3.0846702,5.9606349 2.6249726,5.9434484 2.1435792,5.9254514 1.7438417,5.9897608 1.2370316,6.1667448 c -0.1127555,0.039375 -0.2104233,0.071591 -0.2170399,0.071591 -0.00662,0 -0.00925,-0.03841 -0.00586,-0.08535 l 0.00618,-0.08535 0.2543675,-0.085526 C 1.6426975,5.8583706 1.9500045,5.7986124 2.2967098,5.7833687 2.7786354,5.7621787 3.1350001,5.8273867 3.5121975,6.0057735 3.6762756,6.0833705 4.02262,6.2901811 4.02262,6.310558 c 0,0.00443 -0.00226,0.0072 -0.00502,0.00608 C 4.01484,6.315548 3.926727,6.276207 3.8217972,6.22927 Z m 0.6225527,0.081001 c 0,-0.01535 0.292664,-0.1977232 0.4210459,-0.2623755 0.4046559,-0.2037814 0.6653188,-0.2615112 1.1755003,-0.2603415 0.3370987,7.891e-4 0.4119885,0.0073 0.642635,0.055963 0.1435887,0.030294 0.3740336,0.093118 0.5120997,0.1396026 l 0.2510294,0.084516 0.00618,0.08535 c 0.0034,0.046944 0.00221,0.08535 -0.00265,0.08535 -0.00485,0 -0.1296296,-0.040103 -0.2772869,-0.08912 C 7.0252467,6.1001987 6.7914729,6.0351033 6.6534068,6.0045541 6.4226121,5.953489 6.3675741,5.9489852 5.9706071,5.9486514 5.5665431,5.9483175 5.5234241,5.9519314 5.2986484,6.0049004 5.0258978,6.0691794 4.8486866,6.1295937 4.6100284,6.239662 4.5189044,6.281689 4.4443491,6.313464 4.4443491,6.310275 Z"
         id="path28"
         sodipodi:nodetypes="sscsssscscsscsssscsssssccccccsssscsccsscsssccssssccccscsscsscsccscc" /><text
         xml:space="preserve"
         style="font-style:normal;font-variant:normal;font-weight:normal;font-stretch:normal;font-size:5.64444px;line-height:1.25;font-family:'Bebas Neue';-inkscape-font-specification:'Bebas Neue, Normal';font-variant-ligatures:normal;font-variant-caps:normal;font-variant-numeric:normal;font-variant-east-asian:normal;letter-spacing:0px;word-spacing:0px;fill:#bb3a3a;fill-opacity:1;stroke:none;stroke-width:0.264583"
         x="0.70273829"
         y="5.5442562"
         id="text42"><tspan
           sodipodi:role="line"
           id="tspan42"
           style="font-style:normal;font-variant:normal;font-weight:normal;font-stretch:normal;font-size:5.64444px;font-family:'Bebas Neue';-inkscape-font-specification:'Bebas Neue, Normal';font-variant-ligatures:normal;font-variant-caps:normal;font-variant-numeric:normal;font-variant-east-asian:normal;stroke-width:0.264583;fill:#bb3a3a;fill-opacity:1"
           x="0.70273829"
           y="5.5442562">PICO</tspan></text></g></g></svg>
